<svg xmlns="http://www.w3.org/2000/svg" viewBox="0 0 300 220" width="300" height="220">
  <defs>
    <linearGradient id="mapGradient" x1="0" y1="0" x2="1" y2="1">
      <stop offset="0%" stop-color="#009a44" />
      <stop offset="40%" stop-color="#fed100" />
      <stop offset="100%" stop-color="#ef2b2d" />
    </linearGradient>
    <filter id="texture" x="-20%" y="-20%" width="140%" height="140%">
      <feTurbulence type="fractalNoise" baseFrequency="0.12" numOctaves="3" result="noise" />
      <feColorMatrix in="noise" type="matrix" values="0.6 0 0 0 0  0 0.6 0 0 0  0 0 0.6 0 0  0 0 0 0.6 0" />
      <feBlend in="SourceGraphic" in2="noise" mode="overlay" />
    </filter>
  </defs>
  <rect width="300" height="220" fill="#0d1829" />
  <path d="M 213.8,28.6 L 210.2,31.4 L 206.1,31.8 L 203.5,34.2 L 199.8,34.0 L 196.4,36.2 L 193.0,35.8 L 190.2,38.4 L 187.6,38.0 L 185.4,40.6 L 182.8,40.2 L 180.2,42.8 L 176.8,42.4 L 174.2,45.0 L 170.8,44.6 L 168.6,47.2 L 165.2,46.8 L 162.6,49.4 L 159.2,49.0 L 157.0,51.6 L 153.6,51.2 L 151.4,53.8 L 148.0,53.4 L 145.8,56.0 L 142.4,55.6 L 140.2,58.2 L 139.0,61.4 L 136.8,63.8 L 135.4,67.2 L 133.2,70.0 L 132.0,73.6 L 129.8,76.2 L 128.2,79.8 L 126.0,82.4 L 125.0,86.2 L 122.8,89.0 L 121.8,92.8 L 119.6,95.6 L 118.4,99.4 L 116.4,102.2 L 115.2,106.0 L 113.4,109.0 L 112.2,112.8 L 110.2,115.8 L 109.0,119.6 L 107.4,122.6 L 106.4,126.4 L 104.6,129.4 L 103.6,133.2 L 102.0,136.4 L 101.4,140.2 L 100.2,143.6 L 99.0,147.2 L 98.4,151.0 L 97.4,154.6 L 96.8,158.4 L 96.0,162.0 L 95.6,165.8 L 95.0,169.6 L 94.6,173.4 L 97.4,175.8 L 100.8,177.0 L 104.4,176.8 L 107.8,178.2 L 111.2,179.8 L 114.6,181.4 L 118.0,182.8 L 121.6,184.0 L 125.2,185.0 L 128.8,185.8 L 132.4,186.4 L 136.0,186.8 L 139.6,187.0 L 143.2,187.0 L 146.6,186.8 L 150.2,186.4 L 153.8,185.8 L 157.2,185.0 L 160.6,184.0 L 164.0,182.8 L 167.4,181.4 L 170.8,179.8 L 174.0,178.2 L 177.2,176.4 L 180.4,174.6 L 183.4,172.6 L 186.4,170.4 L 189.2,168.2 L 191.8,165.8 L 194.4,163.4 L 196.8,160.8 L 199.0,158.0 L 200.8,155.2 L 202.6,152.2 L 204.0,149.2 L 205.4,146.0 L 206.4,142.8 L 207.2,139.4 L 207.8,136.0 L 208.0,132.6 L 207.8,129.0 L 207.2,125.6 L 206.2,122.2 L 204.8,119.0 L 203.2,116.0 L 201.2,113.0 L 199.0,110.2 L 197.4,107.2 L 196.2,104.0 L 195.4,100.8 L 194.6,97.4 L 194.2,94.0 L 194.0,90.6 L 194.2,87.2 L 194.8,83.8 L 195.6,80.6 L 196.8,77.4 L 198.2,74.4 L 199.8,71.4 L 201.6,68.6 L 203.6,66.0 L 205.8,63.4 L 207.8,60.8 L 209.6,58.0 L 211.2,55.2 L 212.4,52.2 L 213.4,49.0 L 213.8,45.8 L 214.0,42.4 L 213.8,39.0 L 213.6,35.6 L 213.8,32.2 Z"
        fill="url(#mapGradient)"
        filter="url(#texture)"
      />
  <circle cx="240" cy="180" r="45" fill="rgba(255,255,255,0.06)" />
  <circle cx="45" cy="65" r="30" fill="rgba(255,255,255,0.06)" />
</svg>
