<svg width="1600" height="600" viewBox="0 0 1600 600" fill="none" xmlns="http://www.w3.org/2000/svg">
  <rect width="1600" height="600" rx="32" fill="#0B1221"/>
  <defs>
    <linearGradient id="grad1" x1="0" y1="0" x2="1" y2="1">
      <stop offset="0%" stop-color="#F97316"/>
      <stop offset="100%" stop-color="#38BDF8"/>
    </linearGradient>
    <linearGradient id="grad2" x1="0" y1="0" x2="1" y2="1">
      <stop offset="0%" stop-color="#FACC15"/>
      <stop offset="100%" stop-color="#22C55E"/>
    </linearGradient>
  </defs>
  <path d="M140 420 C 400 320, 700 520, 920 380 C 1140 240, 1360 440, 1460 380" stroke="#64748B" stroke-width="16" fill="none" stroke-dasharray="24 16"/>
  <circle cx="140" cy="420" r="18" fill="#fff"/>
  <circle cx="1460" cy="380" r="18" fill="#fff"/>
  <g transform="translate(100 90)">
    <rect x="0" y="0" width="280" height="220" rx="32" fill="#111827" stroke="#334155" stroke-width="2"/>
    <rect x="20" y="20" width="70" height="70" rx="18" fill="#F97316"/>
    <text x="55" y="68" text-anchor="middle" fill="white" font-family="Inter, sans-serif" font-size="38" font-weight="800">5</text>
    <text x="140" y="120" fill="#F97316" font-family="Inter, sans-serif" font-size="42" font-weight="800">HTML</text>
    <text x="140" y="168" fill="#CBD5E1" font-family="Inter, sans-serif" font-size="18" text-anchor="middle">Structure of web pages</text>
  </g>
  <g transform="translate(380 90)">
    <rect x="0" y="0" width="280" height="220" rx="32" fill="#111827" stroke="#334155" stroke-width="2"/>
    <rect x="20" y="20" width="70" height="70" rx="18" fill="#2563EB"/>
    <text x="55" y="68" text-anchor="middle" fill="white" font-family="Inter, sans-serif" font-size="38" font-weight="800">3</text>
    <text x="140" y="120" fill="#60A5FA" font-family="Inter, sans-serif" font-size="42" font-weight="800">CSS</text>
    <text x="140" y="168" fill="#CBD5E1" font-family="Inter, sans-serif" font-size="18" text-anchor="middle">Style and design</text>
  </g>
  <g transform="translate(660 90)">
    <rect x="0" y="0" width="280" height="220" rx="32" fill="#111827" stroke="#334155" stroke-width="2"/>
    <rect x="20" y="20" width="70" height="70" rx="18" fill="#FBBF24"/>
    <text x="55" y="68" text-anchor="middle" fill="#111827" font-family="Inter, sans-serif" font-size="38" font-weight="800">JS</text>
    <text x="140" y="120" fill="#FACC15" font-family="Inter, sans-serif" font-size="42" font-weight="800">JavaScript</text>
    <text x="140" y="168" fill="#CBD5E1" font-family="Inter, sans-serif" font-size="18" text-anchor="middle">Add interactivity</text>
  </g>
  <g transform="translate(940 90)">
    <rect x="0" y="0" width="280" height="220" rx="32" fill="#111827" stroke="#334155" stroke-width="2"/>
    <rect x="20" y="20" width="70" height="70" rx="18" fill="#38BDF8"/>
    <text x="55" y="68" text-anchor="middle" fill="white" font-family="Inter, sans-serif" font-size="38" font-weight="800">R</text>
    <text x="140" y="120" fill="#7DD3FC" font-family="Inter, sans-serif" font-size="42" font-weight="800">React</text>
    <text x="140" y="168" fill="#CBD5E1" font-family="Inter, sans-serif" font-size="18" text-anchor="middle">Build UI components</text>
  </g>
  <g transform="translate(1220 90)">
    <rect x="0" y="0" width="280" height="220" rx="32" fill="#111827" stroke="#334155" stroke-width="2"/>
    <rect x="20" y="20" width="70" height="70" rx="18" fill="#22C55E"/>
    <text x="55" y="68" text-anchor="middle" fill="white" font-family="Inter, sans-serif" font-size="38" font-weight="800">N</text>
    <text x="140" y="120" fill="#86EFAC" font-family="Inter, sans-serif" font-size="42" font-weight="800">Node.js</text>
    <text x="140" y="168" fill="#CBD5E1" font-family="Inter, sans-serif" font-size="18" text-anchor="middle">Backend logic</text>
  </g>
  <g transform="translate(120 340)">
    <rect x="0" y="0" width="1360" height="180" rx="28" fill="url(#grad1)" opacity="0.14"/>
    <text x="680" y="108" text-anchor="middle" fill="white" font-family="Inter, sans-serif" font-size="32" font-weight="700">Fullstack Roadmap — HTML → CSS → JavaScript → React → Node.js</text>
  </g>
</svg>
